<svg width="30" height="30" viewBox="0 0 40 40" fill="none" xmlns="http://www.w3.org/2000/svg">
<path d="M28.3333 8.26659V20.1333C28.3333 23.4499 25.9833 24.7333 23.1 22.9999L20.9 21.6666C20.4 21.3666 19.6 21.3666 19.1 21.6666L16.9 22.9999C14.0167 24.7333 11.6667 23.4499 11.6667 20.1333V8.31658C11.6833 4.99992 13.35 3.33325 16.6667 3.33325H23.3333C26.6333 3.33325 28.3 4.98325 28.3333 8.26659Z"/>
<path d="M36.6667 19.8334V24.8834C36.6667 33.3001 33.3333 36.6668 25 36.6668H15C6.66666 36.6668 3.33333 33.3001 3.33333 24.8834V19.8334C3.33333 15.3501 4.28333 12.3001 6.41666 10.4334C7.49999 9.51675 9.16666 10.3168 9.16666 11.7334V20.1334C9.16666 22.6168 10.1833 24.6168 11.95 25.6168C13.7333 26.6334 16 26.4501 18.2 25.1334L20 24.0501L21.8167 25.1334C23.05 25.8834 24.3333 26.2668 25.5333 26.2668C26.4333 26.2668 27.2833 26.0501 28.05 25.6168C29.8167 24.6168 30.8333 22.6168 30.8333 20.1334V11.7168C30.8333 10.3001 32.5167 9.50009 33.5833 10.4334C35.7167 12.3001 36.6667 15.3501 36.6667 19.8334Z" />
</svg>
