<svg width="30" height="30" viewBox="0 0 40 40" fill="none" xmlns="http://www.w3.org/2000/svg">
<path d="M32.391 6.72406C32.6115 7.07059 32.2338 7.47428 31.8333 7.38325V7.38325C31.05 7.14992 30.1833 7.03325 29.3 7.03325H23.633C23.4758 7.03325 23.3278 6.95931 23.2333 6.83362L21.2166 4.14992V4.14992C20.9819 3.81732 21.2038 3.33325 21.6109 3.33325H26.2C28.8017 3.33325 31.0934 4.68447 32.391 6.72406Z"/>
<path d="M33.5666 10.8999C32.85 10.3833 32.0333 9.99992 31.15 9.78325C30.55 9.61659 29.9333 9.53325 29.3 9.53325H23.1C22.1333 9.53325 22.0666 9.44992 21.55 8.76659L19.2166 5.66659C18.1333 4.21659 17.2833 3.33325 14.5666 3.33325H10.7C6.63331 3.33325 3.33331 6.63325 3.33331 10.6999V29.2999C3.33331 33.3666 6.63331 36.6666 10.7 36.6666H29.3C33.3666 36.6666 36.6666 33.3666 36.6666 29.2999V16.8999C36.6666 14.4166 35.45 12.2333 33.5666 10.8999ZM23.9833 27.2333H16C15.35 27.2333 14.85 26.7166 14.85 26.0666C14.85 25.4333 15.35 24.8999 16 24.8999H23.9833C24.6333 24.8999 25.15 25.4333 25.15 26.0666C25.15 26.7166 24.6333 27.2333 23.9833 27.2333Z"/>
</svg>
